<svg width="83" height="62" viewBox="0 0 83 62" fill="none" xmlns="http://www.w3.org/2000/svg">
<g clip-path="url(#clip0_5_38)">
<path fill-rule="evenodd" clip-rule="evenodd" d="M82.9 42.19C79.41 42.04 74.27 40.25 70.6 39.29C63.13 37.31 53.31 35.16 43.45 34.5C45.37 46.06 48.98 56.89 56.42 59.82C57.47 60.2 58.32 60.41 59.47 60.86C57.99 61.38 57.75 61.45 56.19 61.23C47.15 59.86 42.45 46.72 39.9 34.35C36.53 34.27 33.2 34.39 29.98 34.8C25.98 44.69 21.09 53.77 15.43 58.49C11.01 62.13 4.09997 64.05 1.01997 56.95C-2.06003 49.87 2.43997 41.77 6.88997 37.6C12.02 32.81 18.65 30.25 25.86 29.24C29.31 21.04 32.15 12.29 34.18 5.32999C34.88 2.95999 36.03 -1.31001 38.81 0.349987C40.89 1.61999 40.86 6.76999 41.03 9.32999C41.38 14.56 41.76 21.81 42.67 29.23C53.08 30.42 63.37 33.49 71.2 36.48C74.87 37.91 79.64 39.63 82.89 42.16L82.9 42.19ZM22.63 36.32C18.67 37.47 15.06 39.23 12 41.73C9.66997 43.61 5.31997 48.47 6.08997 52.58C6.78997 56.13 11.97 51.62 12.92 50.71C16.45 47.29 19.71 42.17 22.63 36.32ZM38.87 28.92C38.33 25.47 37.9 22.28 37.59 19.6C37.39 17.9 37.21 15.92 37.02 13.86C35.72 18.53 34.11 23.67 32.28 28.74C34.46 28.71 36.67 28.75 38.87 28.91V28.92Z" fill="#1E3768"/>
</g>
<defs>
<clipPath id="clip0_5_38">
<rect width="82.9" height="61.77" fill="white"/>
</clipPath>
</defs>
</svg>
